<svg width="25" height="24" fill="none" xmlns="http://www.w3.org/2000/svg"><g clip-path="url('#clip0_102_3278')"><path d="M19.98 0h-14a5 5 0 0 0-5 5v14a5 5 0 0 0 5 5h14a5 5 0 0 0 5-5V5a5 5 0 0 0-5-5Zm-11 19h-3V8h3v11ZM7.48 6.732c-.966 0-1.75-.79-1.75-1.764s.784-1.764 1.75-1.764 1.75.79 1.75 1.764-.783 1.764-1.75 1.764ZM20.98 19h-3v-5.604c0-3.368-4-3.113-4 0V19h-3V8h3v1.765c1.396-2.586 7-2.777 7 2.476V19Z" fill="#1E1E1E"/></g><defs><clipPath id="clip0_102_3278"><path fill="#fff" transform="translate(.98)" d="M0 0h24v24H0z"/></clipPath></defs></svg>